<?xml version="1.0" encoding="UTF-8"?>
<svg width="40px" height="40px" viewBox="0 0 40 40" version="1.1" xmlns="http://www.w3.org/2000/svg" xmlns:xlink="http://www.w3.org/1999/xlink">
    <title>Star with bg</title>
    <g id="Visuals" stroke="none" stroke-width="1" fill="none" fill-rule="evenodd">
        <g id="Star-with-bg">
            <circle id="Oval" fill="#FFA526" opacity="0.200000003" cx="20" cy="20" r="20"></circle>
            <g id="Group-4" transform="translate(6.000000, 6.000000)">
                <path d="M13.1366993,23.1639104 L9.01753848,25.1388461 C8.02153038,25.6163832 6.826986,25.1960793 6.34944894,24.2000712 C6.17068386,23.8272175 6.1118788,23.4081211 6.18112787,23.0004675 L7.16685338,17.1977252 C7.27690569,16.5498723 7.06168811,15.8892933 6.5911235,15.4306061 L3.58710767,12.5024144 C2.79614052,11.731412 2.7799559,10.4651855 3.55095833,9.6742183 C3.85797554,9.35925103 4.26026036,9.15427668 4.69553442,9.09102765 L8.84496884,8.48807954 C9.49638916,8.39342262 10.0595203,7.98428388 10.3508444,7.39399693 L12.2065278,3.6339715 C12.6953724,2.64346418 13.8946241,2.23678618 14.8851314,2.72563077 C15.2795566,2.92029125 15.5988117,3.23954629 15.7934722,3.6339715 L17.6491556,7.39399693 C17.9404797,7.98428388 18.5036108,8.39342262 19.1550312,8.48807954 L23.3044656,9.09102765 C24.3975553,9.24986289 25.1549182,10.2647486 24.996083,11.3578383 C24.932834,11.7931124 24.7278596,12.1953972 24.4128923,12.5024144 L21.4110983,15.4284404 C20.9393023,15.8883278 20.7242694,16.5510744 20.8361886,17.2003524 L21.835284,22.9964151 C22.0229168,24.0849314 21.2926064,25.1194546 20.2040902,25.3070875 C19.7957937,25.3774675 19.375717,25.3193075 19.0019009,25.1406432 L14.8638066,23.1628537 C14.3176133,22.9018023 13.6825727,22.9021909 13.1366993,23.1639104 Z" id="Star" fill="#E08300"></path>
                <path d="M13.0693177,21.4892886 L9.35795077,23.4404697 C8.3802616,23.9544713 7.17100729,23.5785783 6.65700567,22.6008891 C6.45232754,22.2115682 6.38169819,21.765632 6.45605187,21.3321167 L7.16485989,17.1994489 C7.27613577,16.5506607 7.0610388,15.8886603 6.58966663,15.429186 L3.58710767,12.5024144 C2.79614052,11.731412 2.7799559,10.4651855 3.55095833,9.6742183 C3.85797554,9.35925103 4.26026036,9.15427668 4.69553442,9.09102765 L8.84496884,8.48807954 C9.49638916,8.39342262 10.0595203,7.98428388 10.3508444,7.39399693 L12.2065278,3.6339715 C12.6953724,2.64346418 13.8946241,2.23678618 14.8851314,2.72563077 C15.2795566,2.92029125 15.5988117,3.23954629 15.7934722,3.6339715 L17.6491556,7.39399693 C17.9404797,7.98428388 18.5036108,8.39342262 19.1550312,8.48807954 L23.3044656,9.09102765 C24.3975553,9.24986289 25.1549182,10.2647486 24.996083,11.3578383 C24.932834,11.7931124 24.7278596,12.1953972 24.4128923,12.5024144 L21.4103334,15.429186 C20.9389612,15.8886603 20.7238642,16.5506607 20.8351401,17.1994489 L21.5439481,21.3321167 C21.7306701,22.4207896 20.9994945,23.4547015 19.9108216,23.6414235 C19.4773063,23.7157772 19.0313702,23.6451478 18.6420492,23.4404697 L14.9306823,21.4892886 C14.3480342,21.1829724 13.6519658,21.1829724 13.0693177,21.4892886 Z" id="Star" fill="#FFA526"></path>
            </g>
        </g>
    </g>
</svg>